<svg width="17" height="16" viewBox="0 0 17 16" fill="none" xmlns="http://www.w3.org/2000/svg">
<g clip-path="url(#clip0_1_6824)">
<path d="M0.500366 1.5C0.500366 1.36739 0.553045 1.24021 0.646813 1.14645C0.740581 1.05268 0.867758 1 1.00037 1H2.50037C2.6119 1.00003 2.72022 1.03735 2.8081 1.10602C2.89598 1.1747 2.95838 1.27078 2.98537 1.379L3.39037 3H15.0004C15.0738 3.00007 15.1463 3.0163 15.2127 3.04755C15.2792 3.0788 15.3379 3.12429 15.3848 3.1808C15.4316 3.23731 15.4655 3.30345 15.4839 3.37452C15.5023 3.44558 15.5049 3.51984 15.4914 3.592L13.9914 11.592C13.9699 11.7066 13.9091 11.8101 13.8195 11.8846C13.7298 11.9591 13.6169 11.9999 13.5004 12H4.50037C4.3838 11.9999 4.27093 11.9591 4.18128 11.8846C4.09162 11.8101 4.03081 11.7066 4.00937 11.592L2.51037 3.607L2.11037 2H1.00037C0.867758 2 0.740581 1.94732 0.646813 1.85355C0.553045 1.75979 0.500366 1.63261 0.500366 1.5ZM3.60237 4L4.91537 11H13.0854L14.3984 4H3.60237ZM5.50037 12C4.96993 12 4.46123 12.2107 4.08615 12.5858C3.71108 12.9609 3.50037 13.4696 3.50037 14C3.50037 14.5304 3.71108 15.0391 4.08615 15.4142C4.46123 15.7893 4.96993 16 5.50037 16C6.0308 16 6.53951 15.7893 6.91458 15.4142C7.28965 15.0391 7.50037 14.5304 7.50037 14C7.50037 13.4696 7.28965 12.9609 6.91458 12.5858C6.53951 12.2107 6.0308 12 5.50037 12ZM12.5004 12C11.9699 12 11.4612 12.2107 11.0862 12.5858C10.7111 12.9609 10.5004 13.4696 10.5004 14C10.5004 14.5304 10.7111 15.0391 11.0862 15.4142C11.4612 15.7893 11.9699 16 12.5004 16C13.0308 16 13.5395 15.7893 13.9146 15.4142C14.2897 15.0391 14.5004 14.5304 14.5004 14C14.5004 13.4696 14.2897 12.9609 13.9146 12.5858C13.5395 12.2107 13.0308 12 12.5004 12ZM5.50037 13C5.76558 13 6.01994 13.1054 6.20747 13.2929C6.39501 13.4804 6.50037 13.7348 6.50037 14C6.50037 14.2652 6.39501 14.5196 6.20747 14.7071C6.01994 14.8946 5.76558 15 5.50037 15C5.23515 15 4.9808 14.8946 4.79326 14.7071C4.60572 14.5196 4.50037 14.2652 4.50037 14C4.50037 13.7348 4.60572 13.4804 4.79326 13.2929C4.9808 13.1054 5.23515 13 5.50037 13ZM12.5004 13C12.7656 13 13.0199 13.1054 13.2075 13.2929C13.395 13.4804 13.5004 13.7348 13.5004 14C13.5004 14.2652 13.395 14.5196 13.2075 14.7071C13.0199 14.8946 12.7656 15 12.5004 15C12.2351 15 11.9808 14.8946 11.7933 14.7071C11.6057 14.5196 11.5004 14.2652 11.5004 14C11.5004 13.7348 11.6057 13.4804 11.7933 13.2929C11.9808 13.1054 12.2351 13 12.5004 13Z" fill="#23A6F0"/>
</g>
<defs>
<clipPath id="clip0_1_6824">
<rect width="16" height="16" fill="white" transform="translate(0.500366)"/>
</clipPath>
</defs>
</svg>
