<svg width="17" height="16" viewBox="0 0 17 16" fill="none" xmlns="http://www.w3.org/2000/svg">
<g clip-path="url(#clip0_1_6830)">
<path d="M8.50026 2.74805L7.78326 2.01105C6.10026 0.281049 3.01426 0.878049 1.90026 3.05305C1.37726 4.07605 1.25926 5.55305 2.21426 7.43805C3.13426 9.25305 5.04826 11.427 8.50026 13.795C11.9523 11.427 13.8653 9.25305 14.7863 7.43805C15.7413 5.55205 15.6243 4.07605 15.1003 3.05305C13.9863 0.878049 10.9003 0.280049 9.21726 2.01005L8.50026 2.74805ZM8.50026 15C-6.83274 4.86805 3.77926 -3.03995 8.32426 1.14305C8.38426 1.19805 8.44326 1.25505 8.50026 1.31405C8.55668 1.2551 8.61539 1.19839 8.67626 1.14405C13.2203 -3.04195 23.8333 4.86705 8.50026 15Z" fill="#23A6F0"/>
</g>
<defs>
<clipPath id="clip0_1_6830">
<rect width="16" height="16" fill="white" transform="translate(0.500366)"/>
</clipPath>
</defs>
</svg>
